<?xml version="1.0" encoding="UTF-8" standalone="no"?>
<!DOCTYPE svg PUBLIC "-//W3C//DTD SVG 1.1//EN"
 "http://www.w3.org/Graphics/SVG/1.1/DTD/svg11.dtd">
<!-- Generated by graphviz version 2.43.0 (0)
 -->
<!-- Title: qpu_core Pages: 1 -->
<svg width="1850pt" height="576pt"
 viewBox="0.00 0.00 1850.00 576.00" xmlns="http://www.w3.org/2000/svg" xmlns:xlink="http://www.w3.org/1999/xlink">
<g id="graph0" class="graph" transform="scale(1 1) rotate(0) translate(4 572)">
<title>qpu_core</title>
<polygon fill="white" stroke="transparent" points="-4,4 -4,-572 1846,-572 1846,4 -4,4"/>
<text text-anchor="start" x="749" y="-550.6" font-family="Helvetica,sans-Serif" font-weight="bold" font-size="18.00">qpu_core — State&#45;Vector Datapath</text>
<text text-anchor="start" x="683.5" y="-535.8" font-family="Helvetica,sans-Serif" font-size="14.00"> &#160;&#160;&#160;&#160;&#160;&#160;&#160;&#160;&#160;&#160;</text>
<text text-anchor="start" x="733.5" y="-535.8" font-family="Helvetica,sans-Serif" font-size="10.00">1&#45;qubit butterfly · 2&#45;qubit 4×4 kernel · ⟨Z⟩ expectation · one amplitude(&#45;quad) per clock</text>
<text text-anchor="start" x="918.5" y="-521.8" font-family="Helvetica,sans-Serif" font-size="14.00"> </text>
<g id="clust1" class="cluster">
<title>cluster_1q</title>
<path fill="white" stroke="#2f7a55" d="M20,-8C20,-8 304,-8 304,-8 310,-8 316,-14 316,-20 316,-20 316,-234 316,-234 316,-240 310,-246 304,-246 304,-246 20,-246 20,-246 14,-246 8,-240 8,-234 8,-234 8,-20 8,-20 8,-14 14,-8 20,-8"/>
<text text-anchor="start" x="78.5" y="-231.8" font-family="Helvetica,sans-Serif" font-weight="bold" font-size="14.00" fill="#256a48">1&#45;qubit kernel</text>
<text text-anchor="start" x="189.5" y="-231.8" font-family="Helvetica,sans-Serif" font-size="14.00" fill="#256a48"> &#160;(S_1Q)</text>
</g>
<g id="clust2" class="cluster">
<title>cluster_2q</title>
<path fill="white" stroke="#2f7a55" d="M702,-8C702,-8 1390,-8 1390,-8 1396,-8 1402,-14 1402,-20 1402,-20 1402,-234 1402,-234 1402,-240 1396,-246 1390,-246 1390,-246 702,-246 702,-246 696,-246 690,-240 690,-234 690,-234 690,-20 690,-20 690,-14 696,-8 702,-8"/>
<text text-anchor="start" x="962.5" y="-231.8" font-family="Helvetica,sans-Serif" font-weight="bold" font-size="14.00" fill="#256a48">2&#45;qubit kernel</text>
<text text-anchor="start" x="1073.5" y="-231.8" font-family="Helvetica,sans-Serif" font-size="14.00" fill="#256a48"> &#160;(S_2Q)</text>
</g>
<g id="clust3" class="cluster">
<title>cluster_meas</title>
<path fill="white" stroke="#2f7a55" d="M1422,-8C1422,-8 1736,-8 1736,-8 1742,-8 1748,-14 1748,-20 1748,-20 1748,-234 1748,-234 1748,-240 1742,-246 1736,-246 1736,-246 1422,-246 1422,-246 1416,-246 1410,-240 1410,-234 1410,-234 1410,-20 1410,-20 1410,-14 1416,-8 1422,-8"/>
<text text-anchor="start" x="1494" y="-231.8" font-family="Helvetica,sans-Serif" font-weight="bold" font-size="14.00" fill="#256a48">expectation</text>
<text text-anchor="start" x="1588" y="-231.8" font-family="Helvetica,sans-Serif" font-size="14.00" fill="#256a48"> &#160;(S_MEAS)</text>
</g>
<!-- coef -->
<g id="node1" class="node">
<title>coef</title>
<path fill="#e2efe8" stroke="#2f7a55" stroke-width="1.3" d="M534,-215C534,-215 336,-215 336,-215 330,-215 324,-209 324,-203 324,-203 324,-191 324,-191 324,-185 330,-179 336,-179 336,-179 534,-179 534,-179 540,-179 546,-185 546,-191 546,-191 546,-203 546,-203 546,-209 540,-215 534,-215"/>
<text text-anchor="middle" x="435" y="-200" font-family="Helvetica,sans-Serif" font-size="10.00">matrix coeffs from gate_gen</text>
<text text-anchor="middle" x="435" y="-189" font-family="Helvetica,sans-Serif" font-size="10.00">m1q[127:0] &#160;(2×2) &#160;&#160;· &#160;&#160;m2q[511:0] &#160;(4×4)</text>
</g>
<!-- bf0 -->
<g id="node6" class="node">
<title>bf0</title>
<path fill="#ffffff" stroke="#6b7c93" stroke-width="1.3" d="M296,-129C296,-129 190,-129 190,-129 184,-129 178,-123 178,-117 178,-117 178,-105 178,-105 178,-99 184,-93 190,-93 190,-93 296,-93 296,-93 302,-93 308,-99 308,-105 308,-105 308,-117 308,-117 308,-123 302,-129 296,-129"/>
<text text-anchor="middle" x="243" y="-114" font-family="Helvetica,sans-Serif" font-size="10.00">cmac u_bf0</text>
<text text-anchor="middle" x="243" y="-103" font-family="Helvetica,sans-Serif" font-size="10.00">n0 = U00·a0 + U01·a1</text>
</g>
<!-- coef&#45;&gt;bf0 -->
<g id="edge3" class="edge">
<title>coef&#45;&gt;bf0</title>
<path fill="none" stroke="#33475b" d="M400.43,-178.92C381.53,-169.75 357.63,-158.42 336,-149 322.83,-143.26 308.46,-137.37 295.05,-132.02"/>
<polygon fill="#33475b" stroke="#33475b" points="295.65,-129.43 287.71,-129.11 293.71,-134.32 295.65,-129.43"/>
</g>
<!-- bf1 -->
<g id="node7" class="node">
<title>bf1</title>
<path fill="#ffffff" stroke="#6b7c93" stroke-width="1.3" d="M134,-129C134,-129 28,-129 28,-129 22,-129 16,-123 16,-117 16,-117 16,-105 16,-105 16,-99 22,-93 28,-93 28,-93 134,-93 134,-93 140,-93 146,-99 146,-105 146,-105 146,-117 146,-117 146,-123 140,-129 134,-129"/>
<text text-anchor="middle" x="81" y="-114" font-family="Helvetica,sans-Serif" font-size="10.00">cmac u_bf1</text>
<text text-anchor="middle" x="81" y="-103" font-family="Helvetica,sans-Serif" font-size="10.00">n1 = U10·a0 + U11·a1</text>
</g>
<!-- coef&#45;&gt;bf1 -->
<g id="edge4" class="edge">
<title>coef&#45;&gt;bf1</title>
<path fill="none" stroke="#33475b" d="M362.94,-178.9C301.84,-164.4 214.64,-143.71 153.44,-129.19"/>
<polygon fill="#33475b" stroke="#33475b" points="154.01,-126.63 146.11,-127.45 152.8,-131.74 154.01,-126.63"/>
</g>
<!-- r0 -->
<g id="node10" class="node">
<title>r0</title>
<path fill="#ffffff" stroke="#6b7c93" stroke-width="1.3" d="M1018,-129C1018,-129 892,-129 892,-129 886,-129 880,-123 880,-117 880,-117 880,-105 880,-105 880,-99 886,-93 892,-93 892,-93 1018,-93 1018,-93 1024,-93 1030,-99 1030,-105 1030,-105 1030,-117 1030,-117 1030,-123 1024,-129 1018,-129"/>
<text text-anchor="middle" x="955" y="-108.5" font-family="Helvetica,sans-Serif" font-size="10.00">cmac u_r0 : &#160;m0 = Σ U0j·bj</text>
</g>
<!-- coef&#45;&gt;r0 -->
<g id="edge5" class="edge">
<title>coef&#45;&gt;r0</title>
<path fill="none" stroke="#33475b" d="M520.14,-178.99C570.08,-169.38 634.47,-157.6 692,-149 768.11,-137.63 787.91,-140.52 864,-129 866.54,-128.62 869.12,-128.21 871.73,-127.79"/>
<polygon fill="#33475b" stroke="#33475b" points="872.62,-130.31 879.59,-126.5 871.76,-125.13 872.62,-130.31"/>
</g>
<!-- r1 -->
<g id="node11" class="node">
<title>r1</title>
<path fill="#ffffff" stroke="#6b7c93" stroke-width="1.3" d="M1200,-129C1200,-129 1074,-129 1074,-129 1068,-129 1062,-123 1062,-117 1062,-117 1062,-105 1062,-105 1062,-99 1068,-93 1074,-93 1074,-93 1200,-93 1200,-93 1206,-93 1212,-99 1212,-105 1212,-105 1212,-117 1212,-117 1212,-123 1206,-129 1200,-129"/>
<text text-anchor="middle" x="1137" y="-108.5" font-family="Helvetica,sans-Serif" font-size="10.00">cmac u_r1 : &#160;m1 = Σ U1j·bj</text>
</g>
<!-- coef&#45;&gt;r1 -->
<g id="edge6" class="edge">
<title>coef&#45;&gt;r1</title>
<path fill="none" stroke="#33475b" d="M546.15,-179.76C590.31,-173.31 641.55,-165.81 688,-159 718.22,-154.57 725.63,-152.28 756,-149 884.45,-135.15 917.84,-145.33 1046,-129 1048.55,-128.67 1051.14,-128.32 1053.75,-127.95"/>
<polygon fill="#33475b" stroke="#33475b" points="1054.6,-130.48 1061.63,-126.78 1053.82,-125.29 1054.6,-130.48"/>
</g>
<!-- r2 -->
<g id="node12" class="node">
<title>r2</title>
<path fill="#ffffff" stroke="#6b7c93" stroke-width="1.3" d="M1382,-129C1382,-129 1256,-129 1256,-129 1250,-129 1244,-123 1244,-117 1244,-117 1244,-105 1244,-105 1244,-99 1250,-93 1256,-93 1256,-93 1382,-93 1382,-93 1388,-93 1394,-99 1394,-105 1394,-105 1394,-117 1394,-117 1394,-123 1388,-129 1382,-129"/>
<text text-anchor="middle" x="1319" y="-108.5" font-family="Helvetica,sans-Serif" font-size="10.00">cmac u_r2 : &#160;m2 = Σ U2j·bj</text>
</g>
<!-- coef&#45;&gt;r2 -->
<g id="edge7" class="edge">
<title>coef&#45;&gt;r2</title>
<path fill="none" stroke="#33475b" d="M546.12,-180.75C551.49,-180.13 556.8,-179.54 562,-179 857.23,-148.18 933.66,-167.42 1228,-129 1230.55,-128.67 1233.14,-128.31 1235.75,-127.93"/>
<polygon fill="#33475b" stroke="#33475b" points="1236.6,-130.46 1243.62,-126.74 1235.82,-125.27 1236.6,-130.46"/>
</g>
<!-- r3 -->
<g id="node13" class="node">
<title>r3</title>
<path fill="#ffffff" stroke="#6b7c93" stroke-width="1.3" d="M836,-129C836,-129 710,-129 710,-129 704,-129 698,-123 698,-117 698,-117 698,-105 698,-105 698,-99 704,-93 710,-93 710,-93 836,-93 836,-93 842,-93 848,-99 848,-105 848,-105 848,-117 848,-117 848,-123 842,-129 836,-129"/>
<text text-anchor="middle" x="773" y="-108.5" font-family="Helvetica,sans-Serif" font-size="10.00">cmac u_r3 : &#160;m3 = Σ U3j·bj</text>
</g>
<!-- coef&#45;&gt;r3 -->
<g id="edge8" class="edge">
<title>coef&#45;&gt;r3</title>
<path fill="none" stroke="#33475b" d="M493.06,-178.99C525.57,-169.69 566.91,-158.21 604,-149 631.98,-142.05 662.73,-135.11 690.25,-129.15"/>
<polygon fill="#33475b" stroke="#33475b" points="691.14,-131.65 697.92,-127.5 690.03,-126.52 691.14,-131.65"/>
</g>
<!-- cmd -->
<g id="node2" class="node">
<title>cmd</title>
<path fill="#fdf1e0" stroke="#b5762a" stroke-width="1.3" d="M859,-514C859,-514 589,-514 589,-514 583,-514 577,-508 577,-502 577,-502 577,-490 577,-490 577,-484 583,-478 589,-478 589,-478 859,-478 859,-478 865,-478 871,-484 871,-490 871,-490 871,-502 871,-502 871,-508 865,-514 859,-514"/>
<text text-anchor="middle" x="724" y="-499" font-family="Helvetica,sans-Serif" font-size="10.00">command from sequencer</text>
<text text-anchor="middle" x="724" y="-488" font-family="Helvetica,sans-Serif" font-size="10.00">cmd_op · cmd_qa · cmd_qb · cmd_mask · nq · cmd_start</text>
</g>
<!-- ag -->
<g id="node4" class="node">
<title>ag</title>
<path fill="#ffffff" stroke="#6b7c93" stroke-width="1.3" d="M844.5,-431.5C844.5,-431.5 603.5,-431.5 603.5,-431.5 597.5,-431.5 591.5,-425.5 591.5,-419.5 591.5,-419.5 591.5,-387.5 591.5,-387.5 591.5,-381.5 597.5,-375.5 603.5,-375.5 603.5,-375.5 844.5,-375.5 844.5,-375.5 850.5,-375.5 856.5,-381.5 856.5,-387.5 856.5,-387.5 856.5,-419.5 856.5,-419.5 856.5,-425.5 850.5,-431.5 844.5,-431.5"/>
<text text-anchor="start" x="601.5" y="-417.5" font-family="Helvetica,sans-Serif" font-size="10.00">ADDRESS GENERATOR &#160;(counter cnt, mask gating)</text>
<text text-anchor="start" x="601.5" y="-406.5" font-family="Helvetica,sans-Serif" font-size="10.00"> 1Q: &#160;i0 = idx&amp;~tbit , &#160;i1 = i0|tbit</text>
<text text-anchor="start" x="601.5" y="-395.5" font-family="Helvetica,sans-Serif" font-size="10.00"> 2Q: &#160;q00,q01,q10,q11 &#160;(abit,bbit)</text>
<text text-anchor="start" x="601.5" y="-384.5" font-family="Helvetica,sans-Serif" font-size="10.00"> gate active when (idx &amp; mask)==mask</text>
</g>
<!-- cmd&#45;&gt;ag -->
<g id="edge1" class="edge">
<title>cmd&#45;&gt;ag</title>
<path fill="none" stroke="#33475b" d="M724,-477.98C724,-467.11 724,-452.61 724,-439.38"/>
<polygon fill="#33475b" stroke="#33475b" points="726.63,-439.26 724,-431.76 721.38,-439.26 726.63,-439.26"/>
</g>
<!-- smem -->
<g id="node3" class="node">
<title>smem</title>
<path fill="#e2efe8" stroke="#2f7a55" stroke-width="1.3" d="M856,-320C856,-320 592,-320 592,-320 586,-320 580,-314 580,-308 580,-308 580,-296 580,-296 580,-290 586,-284 592,-284 592,-284 856,-284 856,-284 862,-284 868,-290 868,-296 868,-296 868,-308 868,-308 868,-314 862,-320 856,-320"/>
<text text-anchor="middle" x="724" y="-305" font-family="Helvetica,sans-Serif" font-size="10.00">STATE&#45;VECTOR MEMORY</text>
<text text-anchor="middle" x="724" y="-294" font-family="Helvetica,sans-Serif" font-size="10.00">sr[15:0] , si[15:0] &#160;× &#160;2ⁿ &#160;(Q1.14)</text>
</g>
<!-- rd1 -->
<g id="node5" class="node">
<title>rd1</title>
<path fill="#f4f7fa" stroke="#6b7c93" stroke-width="1.3" d="M280,-215C280,-215 160,-215 160,-215 154,-215 148,-209 148,-203 148,-203 148,-191 148,-191 148,-185 154,-179 160,-179 160,-179 280,-179 280,-179 286,-179 292,-185 292,-191 292,-191 292,-203 292,-203 292,-209 286,-215 280,-215"/>
<text text-anchor="middle" x="220" y="-194.5" font-family="Helvetica,sans-Serif" font-size="10.00">read &#160;a0=ψ[i0] , a1=ψ[i1]</text>
</g>
<!-- smem&#45;&gt;rd1 -->
<g id="edge9" class="edge">
<title>smem&#45;&gt;rd1</title>
<path fill="none" stroke="#33475b" d="M579.6,-294.96C498.21,-288.35 395.61,-274.59 308,-246 288.46,-239.62 268.21,-228.91 252.08,-219.22"/>
<polygon fill="#33475b" stroke="#33475b" points="253.19,-216.83 245.43,-215.15 250.45,-221.31 253.19,-216.83"/>
<text text-anchor="middle" x="368.5" y="-256.8" font-family="Helvetica,sans-Serif" font-size="9.00">1Q</text>
</g>
<!-- rd2 -->
<g id="node9" class="node">
<title>rd2</title>
<path fill="#f4f7fa" stroke="#6b7c93" stroke-width="1.3" d="M1037,-215C1037,-215 873,-215 873,-215 867,-215 861,-209 861,-203 861,-203 861,-191 861,-191 861,-185 867,-179 873,-179 873,-179 1037,-179 1037,-179 1043,-179 1049,-185 1049,-191 1049,-191 1049,-203 1049,-203 1049,-209 1043,-215 1037,-215"/>
<text text-anchor="middle" x="955" y="-194.5" font-family="Helvetica,sans-Serif" font-size="10.00">read &#160;b0..b3 = ψ[q00,q01,q10,q11]</text>
</g>
<!-- smem&#45;&gt;rd2 -->
<g id="edge15" class="edge">
<title>smem&#45;&gt;rd2</title>
<path fill="none" stroke="#33475b" d="M762.14,-283.99C802.69,-265.91 866.77,-237.34 909.81,-218.15"/>
<polygon fill="#33475b" stroke="#33475b" points="911.02,-220.49 916.8,-215.03 908.88,-215.69 911.02,-220.49"/>
<text text-anchor="middle" x="831.5" y="-256.8" font-family="Helvetica,sans-Serif" font-size="9.00">2Q</text>
</g>
<!-- mag -->
<g id="node15" class="node">
<title>mag</title>
<path fill="#ffffff" stroke="#6b7c93" stroke-width="1.3" d="M1728,-215C1728,-215 1598,-215 1598,-215 1592,-215 1586,-209 1586,-203 1586,-203 1586,-191 1586,-191 1586,-185 1592,-179 1598,-179 1598,-179 1728,-179 1728,-179 1734,-179 1740,-185 1740,-191 1740,-191 1740,-203 1740,-203 1740,-209 1734,-215 1728,-215"/>
<text text-anchor="middle" x="1663" y="-194.5" font-family="Helvetica,sans-Serif" font-size="10.00">magsq = re² + im² &#160;(Q2.28)</text>
</g>
<!-- smem&#45;&gt;mag -->
<g id="edge25" class="edge">
<title>smem&#45;&gt;mag</title>
<path fill="none" stroke="#33475b" d="M868.02,-293.17C1100.72,-280.31 1536.85,-255.2 1570,-246 1591.17,-240.12 1613.1,-229.09 1630.34,-219.08"/>
<polygon fill="#33475b" stroke="#33475b" points="1631.83,-221.24 1636.94,-215.16 1629.15,-216.73 1631.83,-221.24"/>
<text text-anchor="middle" x="1509" y="-256.8" font-family="Helvetica,sans-Serif" font-size="9.00">MEAS</text>
</g>
<!-- rst -->
<g id="node19" class="node">
<title>rst</title>
<path fill="#f4f7fa" stroke="#6b7c93" stroke-width="1.3" d="M670,-215C670,-215 590,-215 590,-215 584,-215 578,-209 578,-203 578,-203 578,-191 578,-191 578,-185 584,-179 590,-179 590,-179 670,-179 670,-179 676,-179 682,-185 682,-191 682,-191 682,-203 682,-203 682,-209 676,-215 670,-215"/>
<text text-anchor="middle" x="630" y="-200" font-family="Helvetica,sans-Serif" font-size="10.00">RESET (S_RESET)</text>
<text text-anchor="middle" x="630" y="-189" font-family="Helvetica,sans-Serif" font-size="10.00">ψ = |0…0⟩</text>
</g>
<!-- smem&#45;&gt;rst -->
<!-- ag&#45;&gt;smem -->
<g id="edge2" class="edge">
<title>ag&#45;&gt;smem</title>
<path fill="none" stroke="#33475b" d="M724,-367.63C724,-354.57 724,-339.99 724,-327.99"/>
<polygon fill="#33475b" stroke="#33475b" points="721.38,-367.81 724,-375.31 726.63,-367.81 721.38,-367.81"/>
<polygon fill="#33475b" stroke="#33475b" points="726.63,-327.65 724,-320.15 721.38,-327.65 726.63,-327.65"/>
<text text-anchor="middle" x="745.5" y="-342.8" font-family="Helvetica,sans-Serif" font-size="9.00">R/W addr</text>
</g>
<!-- rd1&#45;&gt;bf0 -->
<g id="edge10" class="edge">
<title>rd1&#45;&gt;bf0</title>
<path fill="none" stroke="#33475b" d="M224.77,-178.6C228.09,-166.46 232.57,-150.1 236.25,-136.64"/>
<polygon fill="#33475b" stroke="#33475b" points="238.87,-137.02 238.32,-129.1 233.81,-135.64 238.87,-137.02"/>
</g>
<!-- rd1&#45;&gt;bf1 -->
<g id="edge11" class="edge">
<title>rd1&#45;&gt;bf1</title>
<path fill="none" stroke="#33475b" d="M191.54,-178.8C169.7,-165.61 139.46,-147.33 116.12,-133.22"/>
<polygon fill="#33475b" stroke="#33475b" points="117.2,-130.81 109.43,-129.18 114.49,-135.3 117.2,-130.81"/>
</g>
<!-- wr1 -->
<g id="node8" class="node">
<title>wr1</title>
<path fill="#f4f7fa" stroke="#6b7c93" stroke-width="1.3" d="M223.5,-52C223.5,-52 100.5,-52 100.5,-52 94.5,-52 88.5,-46 88.5,-40 88.5,-40 88.5,-28 88.5,-28 88.5,-22 94.5,-16 100.5,-16 100.5,-16 223.5,-16 223.5,-16 229.5,-16 235.5,-22 235.5,-28 235.5,-28 235.5,-40 235.5,-40 235.5,-46 229.5,-52 223.5,-52"/>
<text text-anchor="middle" x="162" y="-31.5" font-family="Helvetica,sans-Serif" font-size="10.00">write &#160;ψ[i0]=n0 , ψ[i1]=n1</text>
</g>
<!-- bf0&#45;&gt;wr1 -->
<g id="edge12" class="edge">
<title>bf0&#45;&gt;wr1</title>
<path fill="none" stroke="#33475b" d="M224.62,-92.98C213.31,-82.51 198.68,-68.96 186.4,-57.59"/>
<polygon fill="#33475b" stroke="#33475b" points="187.87,-55.38 180.59,-52.21 184.31,-59.23 187.87,-55.38"/>
</g>
<!-- bf1&#45;&gt;wr1 -->
<g id="edge13" class="edge">
<title>bf1&#45;&gt;wr1</title>
<path fill="none" stroke="#33475b" d="M99.38,-92.98C110.69,-82.51 125.32,-68.96 137.6,-57.59"/>
<polygon fill="#33475b" stroke="#33475b" points="139.69,-59.23 143.41,-52.21 136.13,-55.38 139.69,-59.23"/>
</g>
<!-- wr1&#45;&gt;smem -->
<g id="edge14" class="edge">
<title>wr1&#45;&gt;smem</title>
<path fill="none" stroke="#2f7a55" d="M235.59,-37.52C547.99,-48.23 1748.58,-89.62 1752,-93 1757.92,-98.86 1765.83,-235.35 1756,-246 1741.28,-261.94 1159.58,-285.19 876.14,-295.61"/>
<polygon fill="#2f7a55" stroke="#2f7a55" points="875.65,-293 868.25,-295.9 875.85,-298.24 875.65,-293"/>
<text text-anchor="middle" x="1767" y="-151.8" font-family="Helvetica,sans-Serif" font-size="9.00">|ψ&#39;⟩</text>
</g>
<!-- rd2&#45;&gt;r0 -->
<g id="edge16" class="edge">
<title>rd2&#45;&gt;r0</title>
<path fill="none" stroke="#33475b" d="M955,-178.6C955,-166.46 955,-150.1 955,-136.64"/>
<polygon fill="#33475b" stroke="#33475b" points="957.63,-136.6 955,-129.1 952.38,-136.6 957.63,-136.6"/>
</g>
<!-- rd2&#45;&gt;r1 -->
<g id="edge17" class="edge">
<title>rd2&#45;&gt;r1</title>
<path fill="none" stroke="#33475b" d="M992.27,-178.8C1021.57,-165.28 1062.44,-146.41 1093.28,-132.18"/>
<polygon fill="#33475b" stroke="#33475b" points="1094.38,-134.56 1100.09,-129.03 1092.18,-129.79 1094.38,-134.56"/>
</g>
<!-- rd2&#45;&gt;r2 -->
<g id="edge18" class="edge">
<title>rd2&#45;&gt;r2</title>
<path fill="none" stroke="#33475b" d="M1029.1,-178.9C1089.72,-164.91 1175.34,-145.15 1237.82,-130.73"/>
<polygon fill="#33475b" stroke="#33475b" points="1238.6,-133.25 1245.32,-129 1237.42,-128.13 1238.6,-133.25"/>
</g>
<!-- rd2&#45;&gt;r3 -->
<g id="edge19" class="edge">
<title>rd2&#45;&gt;r3</title>
<path fill="none" stroke="#33475b" d="M917.73,-178.8C888.43,-165.28 847.56,-146.41 816.72,-132.18"/>
<polygon fill="#33475b" stroke="#33475b" points="817.82,-129.79 809.91,-129.03 815.62,-134.56 817.82,-129.79"/>
</g>
<!-- wr2 -->
<g id="node14" class="node">
<title>wr2</title>
<path fill="#f4f7fa" stroke="#6b7c93" stroke-width="1.3" d="M1113.5,-52C1113.5,-52 978.5,-52 978.5,-52 972.5,-52 966.5,-46 966.5,-40 966.5,-40 966.5,-28 966.5,-28 966.5,-22 972.5,-16 978.5,-16 978.5,-16 1113.5,-16 1113.5,-16 1119.5,-16 1125.5,-22 1125.5,-28 1125.5,-28 1125.5,-40 1125.5,-40 1125.5,-46 1119.5,-52 1113.5,-52"/>
<text text-anchor="middle" x="1046" y="-31.5" font-family="Helvetica,sans-Serif" font-size="10.00">write &#160;ψ[q00..q11] = m0..m3</text>
</g>
<!-- r0&#45;&gt;wr2 -->
<g id="edge20" class="edge">
<title>r0&#45;&gt;wr2</title>
<path fill="none" stroke="#33475b" d="M975.65,-92.98C988.47,-82.41 1005.1,-68.71 1018.96,-57.28"/>
<polygon fill="#33475b" stroke="#33475b" points="1021,-59.01 1025.12,-52.21 1017.66,-54.96 1021,-59.01"/>
</g>
<!-- r1&#45;&gt;wr2 -->
<g id="edge21" class="edge">
<title>r1&#45;&gt;wr2</title>
<path fill="none" stroke="#33475b" d="M1116.35,-92.98C1103.53,-82.41 1086.9,-68.71 1073.04,-57.28"/>
<polygon fill="#33475b" stroke="#33475b" points="1074.34,-54.96 1066.88,-52.21 1071,-59.01 1074.34,-54.96"/>
</g>
<!-- r2&#45;&gt;wr2 -->
<g id="edge22" class="edge">
<title>r2&#45;&gt;wr2</title>
<path fill="none" stroke="#33475b" d="M1257.05,-92.98C1214.97,-81.42 1159.24,-66.11 1115.62,-54.13"/>
<polygon fill="#33475b" stroke="#33475b" points="1116.1,-51.54 1108.17,-52.08 1114.71,-56.6 1116.1,-51.54"/>
</g>
<!-- r3&#45;&gt;wr2 -->
<g id="edge23" class="edge">
<title>r3&#45;&gt;wr2</title>
<path fill="none" stroke="#33475b" d="M834.95,-92.98C877.03,-81.42 932.76,-66.11 976.38,-54.13"/>
<polygon fill="#33475b" stroke="#33475b" points="977.29,-56.6 983.83,-52.08 975.9,-51.54 977.29,-56.6"/>
</g>
<!-- wr2&#45;&gt;smem -->
<g id="edge24" class="edge">
<title>wr2&#45;&gt;smem</title>
<path fill="none" stroke="#2f7a55" d="M1125.51,-38.79C1321.61,-48.15 1812.63,-71.62 1813,-72 1833.98,-93.81 1828.15,-230.74 1814,-246 1782.63,-279.83 1168.03,-294.02 875.84,-298.87"/>
<polygon fill="#2f7a55" stroke="#2f7a55" points="875.6,-296.25 868.15,-299 875.69,-301.5 875.6,-296.25"/>
<text text-anchor="middle" x="1834" y="-151.8" font-family="Helvetica,sans-Serif" font-size="9.00">|ψ&#39;⟩</text>
</g>
<!-- acc -->
<g id="node17" class="node">
<title>acc</title>
<path fill="#ffffff" stroke="#6b7c93" stroke-width="1.3" d="M1658.5,-129C1658.5,-129 1491.5,-129 1491.5,-129 1485.5,-129 1479.5,-123 1479.5,-117 1479.5,-117 1479.5,-105 1479.5,-105 1479.5,-99 1485.5,-93 1491.5,-93 1491.5,-93 1658.5,-93 1658.5,-93 1664.5,-93 1670.5,-99 1670.5,-105 1670.5,-105 1670.5,-117 1670.5,-117 1670.5,-123 1664.5,-129 1658.5,-129"/>
<text text-anchor="middle" x="1575" y="-108.5" font-family="Helvetica,sans-Serif" font-size="10.00">acc += parity ? −magsq : +magsq</text>
</g>
<!-- mag&#45;&gt;acc -->
<g id="edge26" class="edge">
<title>mag&#45;&gt;acc</title>
<path fill="none" stroke="#33475b" d="M1644.77,-178.6C1631.34,-165.78 1612.98,-148.26 1598.47,-134.4"/>
<polygon fill="#33475b" stroke="#33475b" points="1600.15,-132.37 1592.91,-129.1 1596.52,-136.17 1600.15,-132.37"/>
</g>
<!-- par -->
<g id="node16" class="node">
<title>par</title>
<path fill="#ffffff" stroke="#6b7c93" stroke-width="1.3" d="M1541.5,-215C1541.5,-215 1430.5,-215 1430.5,-215 1424.5,-215 1418.5,-209 1418.5,-203 1418.5,-203 1418.5,-191 1418.5,-191 1418.5,-185 1424.5,-179 1430.5,-179 1430.5,-179 1541.5,-179 1541.5,-179 1547.5,-179 1553.5,-185 1553.5,-191 1553.5,-191 1553.5,-203 1553.5,-203 1553.5,-209 1547.5,-215 1541.5,-215"/>
<text text-anchor="middle" x="1486" y="-194.5" font-family="Helvetica,sans-Serif" font-size="10.00">parity = ^(idx &amp; mask)</text>
</g>
<!-- par&#45;&gt;acc -->
<g id="edge27" class="edge">
<title>par&#45;&gt;acc</title>
<path fill="none" stroke="#33475b" d="M1504.44,-178.6C1518.02,-165.78 1536.58,-148.26 1551.27,-134.4"/>
<polygon fill="#33475b" stroke="#33475b" points="1553.23,-136.15 1556.89,-129.1 1549.63,-132.33 1553.23,-136.15"/>
</g>
<!-- eo -->
<g id="node18" class="node">
<title>eo</title>
<path fill="#e2efe8" stroke="#2f7a55" stroke-width="1.3" d="M1650.5,-52C1650.5,-52 1499.5,-52 1499.5,-52 1493.5,-52 1487.5,-46 1487.5,-40 1487.5,-40 1487.5,-28 1487.5,-28 1487.5,-22 1493.5,-16 1499.5,-16 1499.5,-16 1650.5,-16 1650.5,-16 1656.5,-16 1662.5,-22 1662.5,-28 1662.5,-28 1662.5,-40 1662.5,-40 1662.5,-46 1656.5,-52 1650.5,-52"/>
<text text-anchor="middle" x="1575" y="-31.5" font-family="Helvetica,sans-Serif" font-size="10.00">exp_q28[31:0] &#160;= &#160;⟨⊗Z⟩ &#160;(Q4.28)</text>
</g>
<!-- acc&#45;&gt;eo -->
<g id="edge28" class="edge">
<title>acc&#45;&gt;eo</title>
<path fill="none" stroke="#33475b" d="M1575,-92.98C1575,-83.17 1575,-70.67 1575,-59.79"/>
<polygon fill="#33475b" stroke="#33475b" points="1577.63,-59.71 1575,-52.21 1572.38,-59.71 1577.63,-59.71"/>
</g>
<!-- fsm -->
<g id="node20" class="node">
<title>fsm</title>
<polygon fill="#fff8e6" stroke="#b5762a" stroke-width="1.3" points="1183,-437 889,-437 889,-370 1189,-370 1189,-431 1183,-437"/>
<polyline fill="none" stroke="#b5762a" stroke-width="1.3" points="1183,-437 1183,-431 "/>
<polyline fill="none" stroke="#b5762a" stroke-width="1.3" points="1189,-431 1183,-431 "/>
<text text-anchor="start" x="899" y="-423" font-family="Helvetica,sans-Serif" font-size="10.00">control FSM ‘st’</text>
<text text-anchor="start" x="899" y="-412" font-family="Helvetica,sans-Serif" font-size="10.00"> S_IDLE → { S_1Q | S_2Q | S_MEAS | S_RESET } → S_DONE</text>
<text text-anchor="start" x="899" y="-401" font-family="Helvetica,sans-Serif" font-size="10.00"> decode by cmd_op:</text>
<text text-anchor="start" x="899" y="-390" font-family="Helvetica,sans-Serif" font-size="10.00"> &#160;0x01–0x15 → 1Q · 0x20–0x26 → 2Q</text>
<text text-anchor="start" x="899" y="-379" font-family="Helvetica,sans-Serif" font-size="10.00"> &#160;0x30 → MEAS · 0xF0 → RESET</text>
</g>
</g>
</svg>
